HIERARCHY
ROOT hip
{
  OFFSET 0 0 0
  CHANNELS 6 Xposition Yposition Zposition Zrotation Yrotation Xrotation
  JOINT abdomen
  {
    OFFSET 0 20.6881 -0.73152
    CHANNELS 3 Zrotation Xrotation Yrotation
    JOINT chest
    {
      OFFSET 0 11.7043 -0.48768
      CHANNELS 3 Zrotation Xrotation Yrotation
      JOINT neck
      {
        OFFSET 0 22.1894 -2.19456
        CHANNELS 3 Zrotation Xrotation Yrotation
        JOINT head
        {
          OFFSET -0.24384 7.07133 1.2192
          CHANNELS 3 Zrotation Xrotation Yrotation
          JOINT leftEye
          {
            OFFSET 4.14528 8.04674 8.04672
            CHANNELS 3 Zrotation Xrotation Yrotation
            End Site
            {
              OFFSET 1 0 0
            }
          }
          JOINT rightEye
          {
            OFFSET -3.6576 8.04674 8.04672
            CHANNELS 3 Zrotation Xrotation Yrotation
            End Site
            {
              OFFSET 1 0 0
            }
          }
        }
      }
      JOINT rCollar
      {
        OFFSET -2.68224 19.2634 -4.8768
        CHANNELS 3 Zrotation Xrotation Yrotation
        JOINT rShldr
        {
          OFFSET -8.77824 -1.95073 1.46304
          CHANNELS 3 Zrotation Xrotation Yrotation
          JOINT rForeArm
          {
            OFFSET -28.1742 -1.7115 0.48768
            CHANNELS 3 Zrotation Xrotation Yrotation
            JOINT rHand
            {
              OFFSET -22.5879 0.773209 7.07136
              CHANNELS 3 Zrotation Xrotation Yrotation
              JOINT rThumb1
              {
                OFFSET -1.2192 -0.487915 3.41376
                CHANNELS 3 Zrotation Xrotation Yrotation
                JOINT rThumb2
                {
                  OFFSET -3.37035 -0.52449 3.41376
                  CHANNELS 3 Zrotation Xrotation Yrotation
                  End Site
                  {
                    OFFSET -1.78271 -1.18214 1.43049
                  }
                }
              }
              JOINT rIndex1
              {
                OFFSET -7.75947 0.938293 5.60832
                CHANNELS 3 Zrotation Xrotation Yrotation
                JOINT rIndex2
                {
                  OFFSET -2.54057 -0.884171 1.56538
                  CHANNELS 3 Zrotation Xrotation Yrotation
                  End Site
                  {
                    OFFSET -1.62519 -0.234802 1.16502
                  }
                }
              }
              JOINT rMid1
              {
                OFFSET -8.24714 1.18213 3.41376
                CHANNELS 3 Zrotation Xrotation Yrotation
                JOINT rMid2
                {
                  OFFSET -3.10165 -0.590103 1.0647
                  CHANNELS 3 Zrotation Xrotation Yrotation
                  End Site
                  {
                    OFFSET -2.48547 -0.328903 0.83742
                  }
                }
              }
              JOINT rRing1
              {
                OFFSET -8.82822 0.546677 1.51678
                CHANNELS 3 Zrotation Xrotation Yrotation
                JOINT rRing2
                {
                  OFFSET -2.60934 -0.819778 -0.0198488
                  CHANNELS 3 Zrotation Xrotation Yrotation
                  End Site
                  {
                    OFFSET -2.33842 -0.294052 0.168128
                  }
                }
              }
              JOINT rPinky1
              {
                OFFSET -8.27202 -0.0477905 -0.4584
                CHANNELS 3 Zrotation Xrotation Yrotation
                JOINT rPinky2
                {
                  OFFSET -1.82734 -0.647385 -0.700984
                  CHANNELS 3 Zrotation Xrotation Yrotation
                  End Site
                  {
                    OFFSET -1.69225 -0.51767 -0.607171
                  }
                }
              }
            }
          }
        }
      }
      JOINT lCollar
      {
        OFFSET 2.68224 19.2634 -4.8768
        CHANNELS 3 Zrotation Xrotation Yrotation
        JOINT lShldr
        {
          OFFSET 8.77824 -1.95073 1.46304
          CHANNELS 3 Zrotation Xrotation Yrotation
          JOINT lForeArm
          {
            OFFSET 28.1742 -1.7115 0.48768
            CHANNELS 3 Zrotation Xrotation Yrotation
            JOINT lHand
            {
              OFFSET 22.5879 0.773209 7.07136
              CHANNELS 3 Zrotation Xrotation Yrotation
              JOINT lThumb1
              {
                OFFSET 1.2192 -0.487915 3.41376
                CHANNELS 3 Zrotation Xrotation Yrotation
                JOINT lThumb2
                {
                  OFFSET 3.37035 -0.52449 3.41376
                  CHANNELS 3 Zrotation Xrotation Yrotation
                  End Site
                  {
                    OFFSET 1.78271 -1.18214 1.43049
                  }
                }
              }
              JOINT lIndex1
              {
                OFFSET 7.75947 0.938293 5.60832
                CHANNELS 3 Zrotation Xrotation Yrotation
                JOINT lIndex2
                {
                  OFFSET 2.54057 -0.884171 1.56538
                  CHANNELS 3 Zrotation Xrotation Yrotation
                  End Site
                  {
                    OFFSET 1.62519 -0.234802 1.16502
                  }
                }
              }
              JOINT lMid1
              {
                OFFSET 8.24714 1.18213 3.41376
                CHANNELS 3 Zrotation Xrotation Yrotation
                JOINT lMid2
                {
                  OFFSET 3.10165 -0.590103 1.0647
                  CHANNELS 3 Zrotation Xrotation Yrotation
                  End Site
                  {
                    OFFSET 2.48547 -0.328903 0.83742
                  }
                }
              }
              JOINT lRing1
              {
                OFFSET 8.82822 0.546677 1.51678
                CHANNELS 3 Zrotation Xrotation Yrotation
                JOINT lRing2
                {
                  OFFSET 2.60934 -0.819778 -0.0198488
                  CHANNELS 3 Zrotation Xrotation Yrotation
                  End Site
                  {
                    OFFSET 2.33842 -0.294052 0.168128
                  }
                }
              }
              JOINT lPinky1
              {
                OFFSET 8.27202 -0.0477905 -0.4584
                CHANNELS 3 Zrotation Xrotation Yrotation
                JOINT lPinky2
                {
                  OFFSET 1.82734 -0.647385 -0.700984
                  CHANNELS 3 Zrotation Xrotation Yrotation
                  End Site
                  {
                    OFFSET 1.69225 -0.51767 -0.607171
                  }
                }
              }
            }
          }
        }
      }
    }
  }
  JOINT rButtock
  {
    OFFSET -8.77824 4.35084 1.2192
    CHANNELS 3 Zrotation Xrotation Yrotation
    JOINT rThigh
    {
      OFFSET 0 -1.70687 -2.19456
      CHANNELS 3 Zrotation Xrotation Yrotation
      JOINT rShin
      {
        OFFSET 0 -36.8199 0.73152
        CHANNELS 3 Zrotation Xrotation Yrotation
        JOINT rFoot
        {
          OFFSET 0.73152 -45.1104 -5.12064
          CHANNELS 3 Zrotation Xrotation Yrotation
          End Site
          {
            OFFSET -1.1221 -3.69964 12.103
          }
        }
      }
    }
  }
  JOINT lButtock
  {
    OFFSET 8.77824 4.35084 1.2192
    CHANNELS 3 Zrotation Xrotation Yrotation
    JOINT lThigh
    {
      OFFSET 0 -1.70687 -2.19456
      CHANNELS 3 Zrotation Xrotation Yrotation
      JOINT lShin
      {
        OFFSET 0 -36.8199 0.73152
        CHANNELS 3 Zrotation Xrotation Yrotation
        JOINT lFoot
        {
          OFFSET -0.73152 -45.1104 -5.12064
          CHANNELS 3 Zrotation Xrotation Yrotation
          End Site
          {
            OFFSET 1.1221 -3.69964 12.103
          }
        }
      }
    }
  }
}
MOTION
Frames:	9
Frame Time:	0.00833333
-197.399 84.0179 -7.08578 0.0 0.0 0.0 -1.65551 -0.00357566 -0.0452723 -0.457099 0.000154969 -0.0791638 -5.43886e-14 1.59028e-15 -6.70898e-16 -1.62926e-13 9.54166e-15 -2.04375e-15 -0.0 0.0 0.0 -0.0 0.0 0.0 -2.68387e-14 -1.04828e-16 -1.49089e-16 -5.68289e-13 -2.08724e-15 -8.54774e-15 -9.78821e-12 2.86389e-12 -5.40694e-14 -1.12101e-10 -3.32614e-12 -1.57437e-12 -2.64413e-10 -1.00419e-12 -3.49861e-12 -4.56642e-10 -1.7334e-12 -6.02556e-12 -2.64413e-10 -1.00426e-12 -3.51451e-12 7.73091 5.47488 0.417314 -2.64414e-10 -1.00476e-12 -3.49861e-12 2.90554 0.965183 0.102902 -2.64412e-10 -1.00496e-12 -3.49463e-12 10.2786 0.731801 0.0259123 -2.64426e-10 -9.98694e-13 -3.48589e-12 2.22167 -0.733487 -0.20892 -2.72325e-14 -1.0211e-16 -5.46658e-16 -5.69092e-13 -1.70831e-15 -9.93923e-15 -9.79874e-12 -3.00344e-12 -3.18055e-14 -1.12073e-10 2.55369e-12 -1.57437e-12 -2.64372e-10 -9.81264e-13 -3.48271e-12 -4.56541e-10 -1.7016e-12 -6.00727e-12 -2.64374e-10 -9.81996e-13 -3.47635e-12 -7.73091 5.47488 -0.417314 -2.6437e-10 -9.81698e-13 -3.48271e-12 -2.90554 0.965183 -0.102902 -2.64378e-10 -9.81301e-13 -3.48112e-12 -10.2786 0.731801 -0.0259123 -2.64369e-10 -9.79611e-13 -3.49225e-12 -2.22167 -0.733487 0.20892 -2.03217e-16 0.0 -3.88251e-19 -0.803436 -1.9234 -0.003717 -0.00881857 -2.07862 -0.0725722 -0.452038 3.99778 0.131432 2.03217e-16 0.0 3.88251e-19 -1.71761 -6.77987 0.16447 -0.00322835 6.71845 -0.0840733 0.482132 0.0572874 -0.0558995
-192.424 82.8765 -11.1388 -26.0043 81.4343 -23.015 -1.04891 6.58572 -1.11462 0.439932 -0.79725 -0.281882 0.221456 3.19753 1.0657 -2.07506 -12.8156 1.46885 -0.0 0.0 0.0 -0.0 0.0 0.0 3.98078e-16 1.28876e-13 -1.13737e-13 17.376 18.0447 -2.72257 -7.75724 -4.70483 10.5633 0.0123103 -2.46153 -0.344792 -5.1742e-10 -1.44675e-10 4.71561e-10 -8.99044e-10 -2.50818e-10 8.15147e-10 -5.17421e-10 -1.44674e-10 4.71549e-10 7.73091 5.47488 0.417314 -5.17421e-10 -1.44674e-10 4.71563e-10 2.90554 0.965183 0.102902 -5.1742e-10 -1.44674e-10 4.71566e-10 10.2786 0.731801 0.0259123 -5.17432e-10 -1.44669e-10 4.71575e-10 2.22167 -0.733487 -0.20892 1.4511e-16 1.28875e-13 -1.14039e-13 -21.9931 11.5834 5.41439 8.25155 -5.15897 -10.9948 -0.00620366 -1.74837 0.245305 -5.79014e-10 3.67644e-11 -1.28506e-10 -9.98963e-10 6.33397e-11 -2.24873e-10 -5.79019e-10 3.67638e-11 -1.28499e-10 -7.73091 5.47488 -0.417314 -5.79012e-10 3.6764e-11 -1.28506e-10 -2.90554 0.965183 -0.102902 -5.79021e-10 3.67644e-11 -1.28502e-10 -10.2786 0.731801 -0.0259123 -5.79011e-10 3.6766e-11 -1.28514e-10 -2.22167 -0.733487 0.20892 -2.03217e-16 0.0 -3.88251e-19 1.29142 -2.35293 2.1208 -0.000843273 3.16282 0.0316348 -0.673745 -2.43827 -1.68228 2.03217e-16 0.0 3.88251e-19 1.05165 -12.5175 -1.63959 0.0270974 13.806 -0.149824 0.181691 -2.27123 -2.48093
-192.421 82.725 -11.1242 -26.3601 81.4923 -23.3675 -0.132069 13.544 -2.29582 1.38279 -1.63948 -0.496818 0.32394 6.57288 2.20402 -3.47932 -26.3365 3.28932 -0.0 0.0 0.0 -0.0 0.0 0.0 3.13932e-14 2.75311e-13 -2.43449e-13 38.0307 36.9745 -6.66892 -14.0962 -9.14348 21.9493 -0.00700344 -5.06337 -0.711402 -7.87662e-10 -3.04293e-10 1.00491e-09 -1.37189e-09 -5.2757e-10 1.73713e-09 -7.87664e-10 -3.04292e-10 1.0049e-09 7.73091 5.47488 0.417314 -7.87663e-10 -3.04291e-10 1.00491e-09 2.90554 0.965183 0.102902 -7.87662e-10 -3.04291e-10 1.00492e-09 10.2786 0.731801 0.0259123 -7.87674e-10 -3.04287e-10 1.00493e-09 2.22167 -0.733487 -0.20892 3.12913e-14 2.75307e-13 -2.43648e-13 -47.8046 23.4677 11.904 14.8472 -9.97356 -22.8872 0.00353694 -3.58934 0.504377 -9.44636e-10 7.99028e-11 -2.693e-10 -1.62927e-09 1.37673e-10 -4.71308e-10 -9.44644e-10 7.99022e-11 -2.69292e-10 -7.73091 5.47488 -0.417314 -9.44635e-10 7.99024e-11 -2.693e-10 -2.90554 0.965183 -0.102902 -9.44646e-10 7.99027e-11 -2.69293e-10 -10.2786 0.731801 -0.0259123 -9.44634e-10 7.99042e-11 -2.69306e-10 -2.22167 -0.733487 0.20892 -2.03217e-16 0.0 -3.88251e-19 3.54046 -2.80447 4.36756 -0.0132971 8.70506 0.143342 -1.35551 -9.23145 -3.6424 2.03217e-16 0.0 3.88251e-19 3.56597 -18.5596 -3.65599 0.0783015 21.2984 -0.226473 -0.350266 -4.71593 -5.05713
-192.418 82.8549 -11.0963 -26.3313 81.5263 -23.3709 0.941257 19.7353 -3.43314 2.21705 -2.39192 -0.687836 0.303437 9.57921 3.23731 -3.79724 -38.3312 5.48073 -0.0 0.0 0.0 -0.0 0.0 0.0 5.48717e-14 3.86837e-13 -3.40914e-13 60.2043 53.4693 -13.1205 -18.2659 -12.1946 32.3987 -0.0525737 -7.3835 -1.04206 -1.02343e-09 -4.32016e-10 1.42168e-09 -1.78385e-09 -7.48988e-10 2.45749e-09 -1.02344e-09 -4.32014e-10 1.42168e-09 7.73091 5.47488 0.417314 -1.02343e-09 -4.32013e-10 1.42169e-09 2.90554 0.965183 0.102902 -1.02343e-09 -4.32013e-10 1.42169e-09 10.2786 0.731801 0.0259123 -1.02344e-09 -4.32009e-10 1.4217e-09 2.22167 -0.733487 -0.20892 5.49003e-14 3.8683e-13 -3.41023e-13 -73.5362 33.384 19.1671 19.0511 -13.1938 -33.858 0.0264609 -5.24472 0.738664 -1.2083e-09 1.12256e-10 -3.78554e-10 -2.08381e-09 1.93422e-10 -6.62604e-10 -1.20831e-09 1.12255e-10 -3.78544e-10 -7.73091 5.47488 -0.417314 -1.2083e-09 1.12255e-10 -3.78554e-10 -2.90554 0.965183 -0.102902 -1.20831e-09 1.12256e-10 -3.78545e-10 -10.2786 0.731801 -0.0259123 -1.2083e-09 1.12257e-10 -3.78558e-10 -2.22167 -0.733487 0.20892 -2.03217e-16 0.0 -3.88251e-19 5.57653 -3.19697 6.37443 -0.0431392 13.6456 0.246774 -2.37083 -15.2464 -5.49859 2.03217e-16 0.0 3.88251e-19 5.41546 -23.9055 -5.61116 0.143339 27.981 -0.305168 -1.01238 -6.87778 -7.37854
-192.414 82.8525 -11.0659 -26.4352 81.5424 -23.4941 1.84152 24.0366 -4.28979 2.79182 -2.92001 -0.818577 0.231796 11.6757 3.96977 -3.21721 -46.6161 7.62689 -0.0 0.0 0.0 -0.0 0.0 0.0 5.95585e-14 4.11091e-13 -3.57763e-13 80.803 64.3474 -22.3528 -20.4686 -13.6127 39.8299 -0.100395 -9.0004 -1.27554 -1.17303e-09 -4.8e-10 1.547e-09 -2.04358e-09 -8.32074e-10 2.67378e-09 -1.17303e-09 -4.79998e-10 1.547e-09 7.73091 5.47488 0.417314 -1.17303e-09 -4.79997e-10 1.54701e-09 2.90554 0.965183 0.102902 -1.17303e-09 -4.79997e-10 1.54701e-09 10.2786 0.731801 0.0259123 -1.17304e-09 -4.79994e-10 1.54702e-09 2.22167 -0.733487 -0.20892 5.96665e-14 4.11082e-13 -3.57812e-13 -93.4029 39.6567 25.5875 21.205 -14.6071 -41.6919 0.0510813 -6.43647 0.90845 -1.21705e-09 1.17646e-10 -4.08956e-10 -2.09892e-09 2.02713e-10 -7.16053e-10 -1.21707e-09 1.17646e-10 -4.08946e-10 -7.73091 5.47488 -0.417314 -1.21705e-09 1.17645e-10 -4.08956e-10 -2.90554 0.965183 -0.102902 -1.21707e-09 1.17646e-10 -4.08946e-10 -10.2786 0.731801 -0.0259123 -1.21705e-09 1.17647e-10 -4.08959e-10 -2.22167 -0.733487 0.20892 -2.03217e-16 0.0 -3.88251e-19 7.01222 -3.4543 7.77795 -0.0749105 17.082 0.322177 -3.32345 -19.3799 -6.89345 2.03217e-16 0.0 3.88251e-19 6.4607 -27.5898 -7.09631 0.20167 32.639 -0.368652 -1.58207 -8.38034 -9.0179
-192.406 82.8412 -11.0435 -26.2252 81.5434 -23.3081 2.21501 25.7143 -4.62279 3.00847 -3.13545 -0.864527 0.204496 12.5078 4.25429 -2.73286 -49.8117 8.67379 -0.0 0.0 0.0 -0.0 0.0 0.0 3.39328e-14 2.76047e-13 -2.40728e-13 91.4307 68.2551 -28.4397 -21.2012 -13.9812 42.7569 -0.122724 -9.63193 -1.36756 -1.27184e-09 -4.08832e-10 1.20404e-09 -2.21006e-09 -7.08335e-10 2.07983e-09 -1.27184e-09 -4.0883e-10 1.20404e-09 7.73091 5.47488 0.417314 -1.27184e-09 -4.0883e-10 1.20405e-09 2.90554 0.965183 0.102902 -1.27184e-09 -4.0883e-10 1.20404e-09 10.2786 0.731801 0.0259123 -1.27185e-09 -4.08827e-10 1.20405e-09 2.22167 -0.733487 -0.20892 3.40469e-14 2.76037e-13 -2.4076e-13 -101.712 41.9461 28.5728 21.9225 -14.9595 -44.8198 0.0641643 -6.98705 0.987229 -7.82551e-10 7.62579e-11 -3.03076e-10 -1.35001e-09 1.31403e-10 -5.31547e-10 -7.8256e-10 7.62586e-11 -3.03066e-10 -7.73091 5.47488 -0.417314 -7.82551e-10 7.62576e-11 -3.03076e-10 -2.90554 0.965183 -0.102902 -7.82561e-10 7.62586e-11 -3.03068e-10 -10.2786 0.731801 -0.0259123 -7.82549e-10 7.62601e-11 -3.03078e-10 -2.22167 -0.733487 0.20892 -2.03217e-16 0.0 -3.88251e-19 7.57764 -3.52726 8.33485 -0.0896489 18.4093 0.35211 -3.75161 -20.9228 -7.47555 2.03217e-16 0.0 3.88251e-19 6.81299 -29.0041 -7.70692 0.227635 34.464 -0.396546 -1.83577 -8.9936 -9.6711
-192.401 82.8416 -11.0189 -26.1688 81.5523 -23.2744 2.13989 25.5242 -4.54158 2.97056 -3.12753 -0.849821 0.236699 12.4395 4.21084 -2.81012 -49.4144 8.5099 -0.0 0.0 0.0 -0.0 0.0 0.0 -1.31541e-14 2.89842e-14 -2.90629e-14 90.1811 67.7926 -27.6901 -21.1224 -13.9451 42.4299 -0.120094 -9.55991 -1.35704 -1.33105e-09 -2.52912e-10 5.29453e-10 -2.30422e-09 -4.37489e-10 9.12098e-10 -1.33104e-09 -2.52912e-10 5.2945e-10 7.73091 5.47488 0.417314 -1.33105e-09 -2.52914e-10 5.29467e-10 2.90554 0.965183 0.102902 -1.33104e-09 -2.52912e-10 5.29459e-10 10.2786 0.731801 0.0259123 -1.33105e-09 -2.5291e-10 5.29465e-10 2.22167 -0.733487 -0.20892 -1.30863e-14 2.89745e-14 -2.91064e-14 -100.807 41.782 28.383 21.8736 -14.9656 -44.5512 0.0654313 -7.07934 1.00038 -3.55471e-11 1.88776e-12 -1.01084e-10 -6.24497e-11 3.26325e-12 -1.79213e-10 -3.5553e-11 1.88952e-12 -1.01076e-10 -7.73091 5.47488 -0.417314 -3.55477e-11 1.88748e-12 -1.01084e-10 -2.90554 0.965183 -0.102902 -3.55534e-11 1.88929e-12 -1.01079e-10 -10.2786 0.731801 -0.0259123 -3.5543e-11 1.89086e-12 -1.01087e-10 -2.22167 -0.733487 0.20892 -2.03217e-16 0.0 -3.88251e-19 7.515 -3.47053 8.28657 -0.0874049 18.2305 0.347649 -3.69561 -20.6312 -7.42503 2.03217e-16 0.0 3.88251e-19 6.7813 -28.8141 -7.6288 0.224098 34.2652 -0.394458 -1.81938 -8.98157 -9.61069
-192.396 82.8407 -10.9937 -26.0858 81.5529 -23.2147 1.88816 24.584 -4.29596 2.83101 -3.0281 -0.810974 0.2941 12.0103 4.03559 -3.11001 -47.5821 7.86489 -0.0 0.0 0.0 -0.0 0.0 0.0 -6.24186e-14 -2.03496e-13 1.86821e-13 84.223 65.5773 -24.2507 -20.7195 -13.7471 40.8035 -0.107564 -9.20896 -1.30587 -1.26263e-09 -7.51224e-11 -1.81368e-10 -2.17767e-09 -1.28858e-10 -3.17851e-10 -1.26263e-09 -7.51232e-11 -1.81372e-10 7.73091 5.47488 0.417314 -1.26264e-09 -7.5127e-11 -1.8135e-10 2.90554 0.965183 0.102902 -1.26263e-09 -7.51245e-11 -1.81362e-10 10.2786 0.731801 0.0259123 -1.26264e-09 -7.51221e-11 -1.81357e-10 2.22167 -0.733487 -0.20892 -6.24152e-14 -2.03505e-13 1.86751e-13 -96.1986 40.6447 26.9089 21.5197 -14.8345 -42.9161 0.0613892 -6.97613 0.985462 6.98224e-10 -7.12293e-11 9.79273e-11 1.20243e-09 -1.22717e-10 1.68298e-10 6.98222e-10 -7.12266e-11 9.79346e-11 -7.73091 5.47488 -0.417314 6.98223e-10 -7.12295e-11 9.79277e-11 -2.90554 0.965183 -0.102902 6.98221e-10 -7.1227e-11 9.7929e-11 -10.2786 0.731801 -0.0259123 6.98229e-10 -7.12253e-11 9.7924e-11 -2.22167 -0.733487 0.20892 -2.03217e-16 0.0 -3.88251e-19 7.20176 -3.36556 7.99633 -0.078551 17.4544 0.329607 -3.4486 -19.6172 -7.12293 2.03217e-16 0.0 3.88251e-19 6.5941 -27.9826 -7.27637 0.208992 33.2554 -0.380091 -1.69402 -8.71924 -9.26479
-192.391 82.8403 -10.9693 -25.9866 81.5522 -23.1373 1.73186 24.0119 -4.13624 2.74277 -2.96904 -0.784505 0.341223 11.7598 3.92511 -3.27963 -46.4722 7.48098 -0.0 0.0 0.0 -0.0 0.0 0.0 -9.45772e-14 -2.94793e-13 3.16515e-13 80.9607 64.1914 -22.4941 -20.47 -13.6147 39.8336 -0.100469 -9.00367 -1.27601 -9.78566e-10 6.16582e-11 -6.33039e-10 -1.682e-09 1.08241e-10 -1.09847e-09 -9.7856e-10 6.1657e-11 -6.33045e-10 7.73091 5.47488 0.417314 -9.78572e-10 6.16522e-11 -6.33019e-10 2.90554 0.965183 0.102902 -9.7856e-10 6.1655e-11 -6.33033e-10 10.2786 0.731801 0.0259123 -9.78571e-10 6.16574e-11 -6.33029e-10 2.22167 -0.733487 -0.20892 -9.46223e-14 -2.94802e-13 3.16415e-13 -93.4774 39.9794 26.1 21.3035 -14.7452 -41.9469 0.0594405 -6.94015 0.980221 1.09303e-09 -1.08858e-10 1.94866e-10 1.88329e-09 -1.87548e-10 3.38337e-10 1.09303e-09 -1.08854e-10 1.94873e-10 -7.73091 5.47488 -0.417314 1.09303e-09 -1.08858e-10 1.94866e-10 -2.90554 0.965183 -0.102902 1.09303e-09 -1.08855e-10 1.94866e-10 -10.2786 0.731801 -0.0259123 1.09303e-09 -1.08853e-10 1.94863e-10 -2.22167 -0.733487 0.20892 -2.03217e-16 0.0 -3.88251e-19 7.01461 -3.29381 7.82725 -0.073567 16.9903 0.318839 -3.30675 -18.9921 -6.95092 2.03217e-16 0.0 3.88251e-19 6.47634 -27.4719 -7.06603 0.200661 32.6472 -0.371432 -1.62458 -8.58084 -9.06241
